<?xml version="1.0" standalone="no"?>
<!DOCTYPE svg PUBLIC "-//W3C//DTD SVG 20010904//EN"
 "http://www.w3.org/TR/2001/REC-SVG-20010904/DTD/svg10.dtd">
<svg version="1.0" xmlns="http://www.w3.org/2000/svg"
 width="1280.000000pt" height="844.000000pt" viewBox="0 0 1280.000000 844.000000"
 preserveAspectRatio="xMidYMid meet">

<g transform="translate(0.000000,844.000000) scale(0.100000,-0.100000)"
fill="#000000" stroke="none">
<path d="M6536 6424 c-4 -10 17 -56 52 -118 265 -458 442 -765 487 -841 29
-49 99 -171 156 -270 57 -99 123 -201 147 -226 43 -48 107 -82 175 -94 20 -4
37 -12 37 -17 0 -19 -85 -152 -118 -184 -53 -52 -98 -69 -177 -69 -91 0 -155
30 -208 100 -22 28 -177 289 -345 580 -168 292 -356 618 -418 725 -130 224
-179 287 -261 326 -51 25 -69 28 -148 28 -75 -1 -100 -5 -147 -26 -84 -39
-132 -96 -242 -289 -98 -171 -231 -402 -387 -669 -57 -99 -79 -145 -79 -170 0
-26 25 -78 96 -200 53 -91 197 -340 321 -555 260 -450 260 -450 291 -464 14
-7 132 -11 316 -11 248 0 295 2 306 15 10 12 -36 99 -276 512 -474 821 -493
852 -524 897 -52 77 -116 119 -209 137 -24 5 -46 11 -48 13 -9 9 84 150 126
192 100 99 260 97 361 -6 19 -20 75 -106 124 -191 104 -180 467 -809 551 -954
32 -55 97 -167 144 -250 135 -236 210 -295 375 -295 156 0 229 55 354 268 230
390 497 861 500 883 5 33 15 15 -283 529 -139 239 -282 487 -319 550 -101 175
-62 160 -420 160 -269 0 -305 -2 -310 -16z"/>
<path d="M9831 3554 c-25 -20 -31 -34 -31 -64 0 -108 147 -136 180 -35 32 95
-72 164 -149 99z"/>
<path d="M3281 3534 c-129 -35 -248 -133 -304 -251 -30 -64 -32 -75 -32 -179
0 -107 1 -112 38 -186 79 -161 237 -258 418 -258 92 0 184 26 252 70 52 35
147 135 147 155 0 7 -36 27 -81 44 l-82 31 -34 -39 c-18 -22 -59 -52 -89 -67
-228 -111 -473 140 -360 369 86 176 298 209 445 69 l43 -41 79 31 c44 16 79
36 79 43 0 23 -96 119 -154 154 -109 65 -248 87 -365 55z"/>
<path d="M7710 3104 l0 -434 90 0 90 0 0 124 0 123 129 7 c153 8 211 23 275
72 89 68 132 215 95 325 -17 50 -73 122 -117 152 -77 50 -120 58 -349 62
l-213 3 0 -434z m407 265 c101 -38 132 -164 61 -245 l-30 -34 -129 0 -129 0 0
138 c0 76 3 142 7 145 10 11 189 8 220 -4z"/>
<path d="M6078 3423 l-3 -88 -37 -3 -38 -3 0 -75 0 -74 40 0 40 0 0 -202 c0
-174 3 -208 18 -237 31 -63 60 -76 178 -79 l104 -4 0 76 0 76 -42 0 c-24 0
-49 4 -56 8 -23 15 -32 76 -32 219 l0 143 65 0 65 0 0 75 0 74 -62 3 -63 3 -3
88 -3 87 -84 0 -84 0 -3 -87z"/>
<path d="M9360 3436 c0 -96 -4 -106 -46 -106 l-34 0 0 -75 0 -75 40 0 40 0 0
-211 c0 -240 4 -254 76 -290 34 -16 58 -19 130 -17 l89 3 0 70 0 70 -30 3
c-91 8 -95 18 -95 217 l0 155 65 0 65 0 0 75 0 75 -65 0 -65 0 0 90 0 90 -85
0 -85 0 0 -74z"/>
<path d="M4206 3310 c-27 -11 -59 -28 -71 -40 -29 -28 -35 -25 -35 15 l0 35
-85 0 -85 0 0 -325 0 -325 85 0 85 0 0 158 c0 86 5 174 10 194 21 74 102 137
178 138 36 0 34 -4 36 97 l1 73 -35 0 c-19 -1 -57 -10 -84 -20z"/>
<path d="M5434 3300 c-32 -16 -60 -30 -61 -30 -2 0 -3 11 -3 25 0 25 -1 25
-90 25 l-90 0 2 -427 3 -428 85 0 85 0 3 132 3 133 37 -24 c58 -37 108 -49
183 -44 179 13 292 142 293 333 0 104 -22 170 -80 234 -66 74 -129 101 -230
101 -70 0 -89 -4 -140 -30z m179 -134 c97 -40 136 -186 74 -277 -36 -53 -71
-72 -134 -76 -69 -5 -112 14 -156 69 -42 52 -48 144 -15 208 39 77 146 112
231 76z"/>
<path d="M6738 3317 c-88 -25 -164 -90 -215 -182 -24 -43 -28 -61 -28 -135 0
-73 4 -93 28 -142 63 -128 201 -206 345 -196 123 10 223 74 288 184 23 40 29
62 32 135 4 77 1 93 -21 141 -58 126 -164 197 -303 204 -48 2 -97 -1 -126 -9z
m178 -156 c132 -60 138 -255 9 -328 -50 -28 -106 -29 -161 -3 -133 65 -134
263 -2 329 53 26 100 26 154 2z"/>
<path d="M8709 3311 c-102 -33 -182 -106 -215 -198 -16 -45 -18 -173 -4 -225
16 -57 70 -130 123 -165 154 -103 398 -75 495 56 l21 29 -62 37 c-59 36 -63
37 -87 21 -14 -9 -45 -25 -69 -37 -79 -38 -202 -10 -242 55 -10 17 -19 34 -19
38 0 4 116 9 258 10 l257 3 -1 65 c-1 86 -17 140 -57 191 -90 119 -251 167
-398 120z m198 -156 c43 -26 79 -77 68 -95 -4 -6 -72 -10 -161 -10 -147 0
-154 1 -154 20 0 29 49 79 95 95 60 21 103 18 152 -10z"/>
<path d="M4393 3248 c18 -40 81 -181 140 -313 l107 -240 -54 -130 -55 -130 91
-3 c50 -1 95 1 99 5 7 7 359 868 359 878 0 3 -45 5 -99 5 l-99 0 -25 -67 c-14
-38 -47 -128 -73 -200 -26 -73 -50 -133 -54 -133 -4 0 -43 89 -86 198 l-79
197 -102 3 -103 3 33 -73z"/>
<path d="M9810 2995 l0 -325 85 0 85 0 0 325 0 325 -85 0 -85 0 0 -325z"/>
<path d="M6642 2220 c-12 -5 -27 -21 -33 -34 -16 -34 6 -66 60 -91 54 -24 52
-49 -4 -51 -59 -2 -65 -3 -65 -12 0 -13 47 -32 79 -32 32 0 71 37 71 67 0 22
-24 45 -80 76 -40 22 -34 42 13 42 50 0 70 21 33 35 -32 12 -43 12 -74 0z"/>
<path d="M7004 2211 c-62 -38 -80 -92 -49 -151 52 -100 215 -63 215 48 0 46
-26 86 -67 106 -44 21 -61 20 -99 -3z m100 -42 c55 -43 23 -129 -49 -129 -70
0 -103 87 -49 129 15 12 37 21 49 21 12 0 34 -9 49 -21z"/>
<path d="M8734 2211 c-62 -38 -80 -92 -49 -151 40 -78 160 -78 200 0 31 59 10
126 -49 154 -44 21 -64 20 -102 -3z m100 -42 c30 -24 35 -72 10 -107 -21 -31
-85 -31 -114 0 -29 32 -27 81 6 107 15 12 37 21 49 21 12 0 34 -9 49 -21z"/>
<path d="M3642 2113 l3 -108 45 -3 c55 -3 92 15 104 50 8 22 6 32 -8 47 -14
16 -15 23 -6 40 8 16 8 28 -2 49 -12 25 -19 27 -76 30 l-63 3 3 -108z m92 74
c10 -7 16 -22 14 -33 -5 -26 -61 -27 -66 -1 -8 43 17 59 52 34z m21 -107 c9
-29 -2 -40 -41 -40 -31 0 -34 2 -34 30 0 28 3 30 34 30 26 0 36 -5 41 -20z"/>
<path d="M3997 2138 c-8 -112 -5 -132 16 -136 14 -3 17 4 17 42 0 43 2 46 25
46 21 0 29 -9 45 -45 11 -25 26 -45 35 -45 20 0 19 23 -5 69 -17 34 -18 41 -5
51 20 16 19 64 -1 84 -10 11 -34 16 -68 16 l-53 0 -6 -82z m97 40 c21 -30 4
-60 -32 -56 -28 3 -40 32 -28 64 8 21 43 17 60 -8z"/>
<path d="M4432 2208 c-13 -17 -92 -187 -92 -199 0 -19 30 -8 46 16 14 21 24
25 64 25 41 0 51 -4 67 -26 11 -14 27 -25 35 -23 13 3 7 23 -34 112 -49 104
-65 121 -86 95z m27 -126 c-42 -5 -46 2 -24 46 l18 37 18 -40 18 -40 -30 -3z"/>
<path d="M4760 2110 c0 -103 1 -110 20 -110 17 0 20 7 20 50 l0 50 45 0 45 0
0 -50 c0 -43 3 -50 20 -50 19 0 20 7 20 110 0 102 -1 110 -19 110 -16 0 -20
-8 -23 -42 -3 -43 -3 -43 -45 -46 l-43 -3 0 45 c0 39 -3 46 -20 46 -19 0 -20
-7 -20 -110z"/>
<path d="M5140 2110 c0 -91 3 -110 15 -110 12 0 15 14 15 70 0 39 4 70 9 70 6
0 22 -23 37 -51 l28 -50 30 50 c17 28 34 51 38 51 5 0 8 -31 8 -70 0 -56 3
-70 15 -70 12 0 15 19 15 110 0 102 -1 110 -19 110 -12 0 -31 -19 -51 -52 -32
-51 -33 -52 -49 -31 -9 11 -24 35 -33 52 -11 19 -25 31 -38 31 -19 0 -20 -6
-20 -110z"/>
<path d="M5606 2133 c-55 -112 -62 -133 -42 -133 9 0 23 11 32 25 14 22 24 25
70 25 48 0 56 -3 66 -25 6 -14 19 -25 30 -25 10 0 18 2 18 4 0 2 -23 51 -51
110 -29 61 -57 106 -65 106 -7 0 -33 -39 -58 -87z m94 -45 c0 -5 -16 -8 -35
-8 -39 0 -42 7 -19 52 l17 32 18 -35 c10 -19 18 -37 19 -41z"/>
<path d="M5970 2110 c0 -103 1 -110 20 -110 17 0 19 8 22 78 l3 77 50 -77 c72
-113 85 -108 85 32 0 91 -3 110 -15 110 -15 0 -17 -8 -18 -87 0 -24 -4 -43 -8
-43 -4 0 -26 29 -49 65 -33 50 -48 65 -66 65 -24 0 -24 -1 -24 -110z"/>
<path d="M7370 2110 l0 -110 75 0 c68 0 75 2 75 20 0 18 -7 20 -55 20 l-55 0
0 90 c0 83 -1 90 -20 90 -19 0 -20 -7 -20 -110z"/>
<path d="M7696 2177 c-20 -129 52 -210 143 -162 36 18 51 60 51 141 0 56 -2
64 -19 64 -17 0 -19 -9 -23 -80 -4 -89 -12 -102 -63 -98 -39 4 -55 36 -55 116
0 46 -4 62 -14 62 -9 0 -16 -16 -20 -43z"/>
<path d="M8080 2205 c0 -10 10 -15 30 -15 l30 0 0 -95 c0 -88 1 -95 20 -95 19
0 20 7 20 95 l0 95 30 0 c20 0 30 5 30 15 0 12 -16 15 -80 15 -64 0 -80 -3
-80 -15z"/>
<path d="M8430 2110 c0 -103 1 -110 20 -110 19 0 20 7 20 110 0 103 -1 110
-20 110 -19 0 -20 -7 -20 -110z"/>
<path d="M9100 2110 c0 -103 1 -110 20 -110 17 0 19 8 22 78 l3 77 50 -77 c73
-112 85 -108 85 32 0 90 -3 110 -15 110 -11 0 -15 -17 -17 -72 l-3 -73 -49 73
c-38 55 -54 72 -72 72 -24 0 -24 -1 -24 -110z"/>
</g>
</svg>
